<?xml version="1.0" standalone="no"?>
<!DOCTYPE svg PUBLIC "-//W3C//DTD SVG 20010904//EN"
 "http://www.w3.org/TR/2001/REC-SVG-20010904/DTD/svg10.dtd">
<svg version="1.0" xmlns="http://www.w3.org/2000/svg"
 width="512.000000pt" height="512.000000pt" viewBox="0 0 512.000000 512.000000"
 preserveAspectRatio="xMidYMid meet">
<metadata>
Created by potrace 1.14, written by Peter Selinger 2001-2017
</metadata>
<g transform="translate(0.000000,512.000000) scale(0.100000,-0.100000)"
fill="#000000" stroke="none">
<path d="M4229 4936 c-3 -3 -18 -7 -34 -10 -104 -19 -189 -43 -280 -79 -140
-54 -137 -54 -135 -20 3 42 1 53 -10 53 -5 0 -12 -11 -16 -25 -3 -14 -9 -25
-13 -25 -3 0 -25 -17 -48 -38 -87 -78 -85 -77 -98 -58 -7 9 -10 27 -7 41 2 14
0 25 -5 25 -15 0 -33 -23 -33 -40 0 -10 -16 -33 -35 -53 -38 -39 -78 -49 -89
-22 -7 19 -36 20 -36 2 0 -19 -40 -53 -71 -61 -24 -5 -26 -3 -21 19 3 20 1 24
-12 19 -9 -3 -16 -10 -16 -14 0 -19 -56 3 -99 39 -37 31 -84 54 -131 66 -3 1
-18 7 -35 14 -16 7 -73 25 -125 39 -89 24 -109 26 -320 26 -200 0 -235 -2
-313 -22 -118 -30 -216 -69 -321 -128 -49 -27 -96 -53 -107 -59 -10 -5 -19
-13 -19 -17 0 -5 -7 -8 -16 -8 -8 0 -12 -4 -9 -10 3 -5 0 -10 -7 -10 -7 0 -26
-12 -43 -26 -16 -14 -50 -42 -74 -62 -25 -21 -52 -44 -61 -52 -9 -8 -22 -16
-29 -18 -6 -1 -19 -4 -29 -6 -46 -8 -72 -19 -72 -29 0 -6 -7 -19 -17 -29 -11
-13 -12 -18 -3 -18 10 0 10 -3 1 -14 -7 -9 -8 -17 -2 -20 16 -10 1 -40 -33
-66 -18 -13 -43 -39 -55 -57 -12 -18 -27 -33 -34 -33 -21 0 -86 75 -91 105
-13 70 -50 90 -187 101 -121 10 -215 -28 -299 -123 -92 -103 -125 -240 -71
-297 14 -14 21 -26 17 -26 -5 0 -4 -6 2 -13 7 -8 7 -18 2 -27 -5 -8 -6 -18 -4
-22 3 -4 1 -8 -5 -8 -13 0 -8 -109 8 -137 6 -13 9 -23 6 -23 -2 0 8 -22 25
-48 24 -40 29 -57 27 -105 -1 -31 -4 -57 -7 -57 -32 0 -94 91 -106 155 -9 52
-13 58 -28 42 -11 -11 -18 -38 -28 -104 -1 -7 -8 -15 -15 -17 -9 -4 -20 10
-33 42 -11 26 -27 59 -35 73 -17 30 -46 131 -49 169 -1 14 -5 30 -8 35 -3 6
-4 38 -3 73 2 34 2 62 0 62 -8 0 -44 -77 -39 -82 2 -3 -3 -21 -11 -41 -8 -21
-13 -37 -10 -37 3 0 0 -10 -7 -22 -25 -46 -16 -250 12 -278 17 -17 70 -100 70
-110 0 -6 -7 -18 -15 -26 -8 -9 -15 -24 -15 -35 0 -11 -9 -37 -20 -58 -10 -21
-16 -41 -13 -45 4 -3 2 -6 -3 -6 -6 0 -9 -37 -8 -87 1 -71 5 -95 23 -125 12
-20 21 -43 20 -50 -4 -19 21 -118 39 -153 8 -16 58 -72 111 -125 53 -52 97
-100 98 -107 4 -18 -46 -53 -64 -46 -27 10 -71 65 -98 121 -31 66 -47 67 -43
5 2 -27 -1 -50 -7 -53 -13 -6 -71 80 -86 128 -6 20 -14 80 -18 132 l-6 95 -19
-35 c-15 -27 -20 -63 -24 -171 -5 -131 -4 -139 19 -171 25 -36 138 -150 183
-184 18 -15 29 -33 31 -55 5 -52 12 -73 34 -117 41 -81 21 -92 -65 -37 -30 19
-59 35 -64 35 -6 0 -10 4 -10 9 0 5 -9 11 -20 14 -11 3 -18 1 -14 -4 3 -5 -7
-9 -23 -9 -40 0 -134 77 -191 156 -36 50 -48 60 -50 45 -7 -42 83 -175 195
-288 56 -57 61 -65 53 -92 -8 -27 -6 -29 51 -56 32 -16 76 -47 98 -70 22 -23
79 -68 126 -100 119 -80 171 -154 117 -168 -15 -4 -16 -5 -1 -6 16 -1 37 -66
25 -78 -3 -3 -29 -11 -59 -18 -52 -12 -54 -12 -134 26 -70 33 -92 39 -160 40
-43 1 -93 8 -112 16 -47 18 -60 3 -31 -37 25 -34 151 -140 168 -140 17 0 89
-39 102 -55 9 -11 7 -16 -8 -24 -11 -6 -21 -8 -23 -6 -9 9 -57 13 -68 5 -17
-10 21 -47 67 -66 18 -8 56 -29 84 -46 29 -18 70 -35 93 -38 l40 -6 -45 -28
c-58 -38 -70 -50 -78 -83 -12 -44 -3 -81 19 -88 11 -4 24 -17 29 -30 5 -14 28
-36 50 -51 l41 -27 77 18 c99 24 111 26 207 29 44 2 87 6 96 10 23 10 52 -29
32 -43 -4 -3 -19 -26 -32 -50 -29 -53 -39 -152 -21 -214 45 -161 262 -195 304
-47 6 21 5 20 -13 -7 -38 -60 -105 -85 -151 -57 -38 24 -80 74 -81 98 -6 88
17 145 89 219 60 61 92 78 120 63 11 -6 55 -44 98 -85 44 -40 96 -83 117 -95
59 -34 46 -50 -43 -52 -41 -1 -75 -3 -75 -4 0 -1 -11 -3 -25 -6 -40 -7 -50
-12 -50 -27 0 -10 18 -13 78 -12 42 1 89 -1 104 -6 15 -4 30 -4 33 1 11 17 93
6 118 -17 14 -12 28 -19 31 -16 3 4 6 2 6 -4 0 -14 122 -94 233 -152 95 -51
229 -101 269 -101 50 -1 178 10 280 25 86 13 120 13 180 4 137 -22 350 4 493
59 27 11 51 26 53 33 2 10 1 11 -5 2 -10 -13 -91 -21 -322 -29 -140 -5 -175
-3 -182 7 -11 17 -11 30 -1 27 4 -1 16 3 27 9 11 6 36 14 55 18 19 4 47 19 63
33 21 20 37 26 70 25 29 -1 51 6 72 21 17 13 41 26 55 30 61 17 100 40 100 58
0 10 -4 18 -9 18 -5 0 -7 9 -4 20 4 14 17 21 52 25 25 3 54 10 63 16 10 5 24
9 31 9 7 0 28 14 46 31 l34 31 13 -24 c7 -12 13 -49 14 -80 0 -64 -6 -60 88
-60 38 0 52 -4 52 -14 0 -8 -8 -17 -17 -20 -10 -3 -38 -17 -63 -30 -25 -13
-84 -43 -132 -66 -49 -22 -88 -47 -88 -54 0 -15 12 -18 24 -7 7 7 12 9 65 18
l35 7 -30 -24 c-58 -49 -240 -130 -295 -132 -16 -1 -29 -4 -29 -7 0 -3 -46
-14 -102 -25 -108 -19 -369 -26 -498 -12 -46 5 -60 4 -47 -3 20 -11 22 -12
130 -29 94 -16 299 -8 402 15 39 8 80 17 92 19 13 3 26 7 31 10 5 3 22 7 38
10 59 11 324 130 324 146 0 4 6 7 13 7 6 0 44 22 82 49 64 44 94 69 150 124
22 21 81 24 443 20 96 -1 176 1 179 4 3 3 -13 13 -35 22 -44 20 -46 44 -3 44
32 0 56 14 47 28 -3 5 -22 13 -43 17 -100 19 -164 56 -263 154 -99 99 -200
224 -200 248 0 7 8 16 18 19 9 3 37 16 62 28 45 23 70 24 70 3 0 -17 -44 -77
-57 -77 -6 0 -15 -5 -19 -12 -4 -7 -3 -8 4 -4 7 4 12 3 12 -2 0 -5 7 -9 15 -9
8 0 12 3 10 6 -2 4 32 23 74 44 77 37 141 84 141 104 0 11 29 27 43 25 10 -3
9 22 -2 51 -9 22 -6 26 17 36 41 17 70 16 150 -4 51 -12 76 -24 84 -38 10 -20
6 -121 -8 -179 -4 -17 -2 -28 4 -28 13 0 42 90 42 130 0 18 6 46 14 63 8 18
16 39 19 48 5 14 57 28 117 30 8 1 48 12 88 26 113 37 200 98 287 197 13 15
35 54 35 62 0 9 -64 -38 -78 -58 -7 -10 -17 -16 -22 -13 -4 3 -10 -1 -13 -9
-9 -23 -97 -46 -220 -57 -64 -5 -122 -7 -127 -4 -17 10 -11 33 10 40 11 4 18
11 14 16 -3 5 -10 6 -16 3 -7 -5 -9 -1 -5 9 3 10 2 17 -4 17 -5 0 -2 12 8 26
24 37 26 102 4 109 -28 9 -24 51 9 87 59 63 75 78 86 78 20 0 60 73 58 108 -2
47 -2 47 -21 68 -20 21 -73 32 -73 15 0 -6 7 -11 15 -11 26 0 56 -42 51 -73
-6 -37 -33 -77 -51 -77 -8 0 -15 -5 -15 -10 0 -7 -6 -7 -20 0 -12 6 -17 16
-13 26 4 10 1 15 -8 14 -40 -6 -51 18 -29 60 6 11 12 34 13 52 2 18 6 38 10
44 9 15 -15 35 -30 26 -10 -7 -26 -60 -38 -127 -7 -38 -11 -50 -34 -95 -13
-28 -24 -71 -26 -114 -5 -72 -11 -90 -26 -81 -5 4 -9 2 -9 -3 0 -19 -225 -67
-257 -55 -14 5 8 39 58 92 15 15 34 40 44 55 10 14 28 29 41 32 12 3 51 40 86
81 77 92 88 110 88 146 0 25 -3 27 -32 23 -18 -2 -43 -7 -55 -10 -31 -7 -41
32 -19 75 17 34 14 49 -11 49 -9 0 -13 3 -10 6 3 4 0 16 -8 26 -19 28 -10 44
23 42 33 -1 54 5 47 16 -3 4 9 13 25 19 39 13 38 22 -2 21 -71 -1 -80 9 -45
48 9 10 14 21 11 25 -4 3 7 9 22 13 16 4 42 18 57 31 16 12 32 23 36 23 5 0
25 16 46 36 21 20 48 39 59 42 36 11 230 7 252 -5 11 -6 26 -8 32 -4 9 5 5 11
-10 18 -52 24 -80 33 -88 28 -5 -3 -11 -1 -15 5 -3 5 -16 10 -28 10 -74 -1
-227 14 -227 22 0 5 7 22 15 38 11 21 12 30 4 30 -7 0 -9 3 -6 7 4 3 2 12 -4
20 -7 7 -7 13 -2 13 13 0 35 49 27 61 -3 5 -14 -1 -23 -13 l-18 -22 -12 22
c-7 14 -8 28 -3 40 5 9 8 36 7 60 -1 29 2 42 12 42 7 0 13 5 13 10 0 6 6 10
14 10 16 0 46 26 46 41 0 12 -28 12 -43 -1 -7 -6 -23 -19 -37 -29 -19 -15 -25
-30 -27 -63 -3 -64 -8 -83 -24 -109 l-15 -22 -22 34 c-11 19 -32 45 -46 58
-26 24 -35 61 -16 61 6 0 9 3 8 8 -3 14 16 47 40 67 15 13 27 38 33 70 6 32
19 60 38 80 32 33 44 65 43 108 0 15 7 44 16 65 8 20 16 39 17 42 0 3 3 10 7
16 6 9 5 32 -4 112 -1 6 -11 12 -23 12 -15 0 -32 -18 -60 -62 -41 -63 -82
-108 -100 -108 -11 0 -45 -35 -45 -46 0 -11 -28 -33 -34 -27 -3 4 -14 -12 -23
-35 -17 -46 -39 -52 -59 -17 -10 15 -8 26 6 53 10 19 17 39 14 46 -3 7 2 29
11 49 8 20 15 39 15 42 0 3 7 22 16 43 31 71 33 91 18 127 -8 19 -14 46 -14
60 0 39 -46 30 -94 -19 -12 -11 -30 -26 -42 -32 -19 -11 -20 -10 -16 20 3 24
1 28 -7 16 -7 -10 -11 -11 -11 -2 0 6 -5 12 -11 12 -5 0 -7 -5 -3 -12 4 -7 3
-8 -5 -4 -6 4 -18 0 -27 -8 -18 -18 -69 -22 -58 -5 5 8 1 8 -14 0 -31 -16 -38
4 -16 45 13 23 29 37 49 42 23 6 31 15 33 36 3 25 2 27 -18 16 -12 -6 -19 -14
-16 -17 3 -3 -2 -12 -10 -20 -19 -19 -17 -21 -35 58 -12 52 -13 68 -3 77 10 9
14 8 17 -1 8 -20 20 21 13 46 -3 13 -15 34 -26 47 -20 23 -20 25 -3 31 10 3
27 0 39 -7 11 -8 24 -11 27 -7 4 3 7 1 7 -5 0 -7 14 -12 30 -12 19 0 30 5 29
13 -3 24 1 38 10 32 5 -3 12 -1 16 5 4 6 11 8 16 5 5 -4 9 1 9 9 0 9 -7 16
-15 16 -8 0 -15 5 -15 10 0 6 -6 10 -14 10 -20 0 -29 30 -11 37 9 3 28 2 43
-1 91 -23 122 -19 137 16 6 13 16 24 23 24 6 1 19 2 27 3 25 2 17 17 -16 34
-29 14 -30 16 -13 25 11 5 31 10 45 10 14 0 43 5 63 12 44 14 48 41 9 57 l-28
11 28 2 c49 4 82 16 129 48 37 24 53 57 24 46 -19 -7 -47 8 -38 21 4 6 27 23
52 39 57 37 111 87 104 98 -9 14 15 45 46 58 16 7 30 15 30 19 0 3 14 12 30
19 44 20 39 49 -8 43 -6 -1 -19 2 -28 7 -18 10 -16 13 56 72 73 60 96 90 69
90 -11 0 -269 -139 -279 -150 -10 -12 -60 -40 -70 -40 -10 0 -7 40 5 60 3 5 8
19 10 31 2 11 7 29 10 40 4 11 2 19 -5 19 -12 0 -40 -24 -40 -35 0 -24 -128
-123 -219 -170 l-34 -17 7 41 c8 49 -3 52 -41 10 -35 -39 -39 -42 -87 -79 -48
-37 -66 -28 -48 23 16 44 15 57 -3 57 -8 0 -15 -4 -15 -8 0 -12 -87 -102 -130
-134 -19 -15 -48 -30 -64 -34 -29 -7 -29 -7 -22 30 7 35 6 37 -13 26 -12 -6
-21 -15 -21 -21 0 -21 -62 -67 -84 -62 -11 2 -28 5 -36 6 -24 3 -40 24 -33 44
9 26 63 76 111 103 23 13 42 27 42 30 0 10 52 61 70 69 8 3 48 28 89 56 40 27
105 63 145 80 42 19 72 38 74 48 3 16 -9 23 -19 13z m-1245 -222 c3 -8 2 -12
-4 -9 -6 3 -10 10 -10 16 0 14 7 11 14 -7z m44 -18 c-2 -1 -10 -7 -20 -14 -11
-9 -18 -10 -23 -2 -4 6 -1 9 7 8 7 -2 12 2 11 9 -2 7 4 10 13 6 8 -3 14 -6 12
-7z m62 -31 c14 -2 37 -5 51 -6 19 -2 25 -8 21 -21 -2 -9 -7 -17 -11 -16 -14
4 -51 -14 -46 -23 4 -5 -1 -9 -9 -9 -16 0 -17 24 -4 46 4 6 1 11 -7 11 -8 0
-14 -3 -13 -6 2 -18 -3 -31 -12 -31 -6 0 -8 11 -6 25 3 13 1 27 -4 30 -5 3 -7
-3 -5 -13 2 -11 -3 -19 -11 -19 -10 0 -11 4 -3 13 7 8 7 14 -1 19 -5 3 -10 1
-10 -6 0 -7 -3 -10 -6 -6 -13 12 9 29 30 22 11 -4 32 -8 46 -10z m-1234 -90
c-3 -8 0 -15 7 -16 9 0 9 -2 -1 -6 -6 -2 -9 -10 -6 -15 4 -6 2 -8 -4 -4 -6 3
-13 2 -17 -4 -3 -5 -1 -10 5 -10 7 0 5 -6 -4 -15 -16 -17 -30 -20 -21 -6 3 6
-4 8 -15 6 -16 -3 -20 1 -20 23 0 15 4 23 8 17 4 -5 13 -11 21 -13 12 -3 12 0
1 13 -11 13 -10 14 5 9 14 -6 16 -4 10 6 -5 9 -4 11 4 6 6 -4 14 0 17 8 3 9 8
16 11 16 3 0 3 -7 -1 -15z m-83 -65 c3 -13 1 -18 -5 -13 -6 3 -8 1 -4 -5 3 -5
2 -12 -4 -14 -6 -2 -1 -9 10 -16 12 -7 20 -8 20 -2 0 5 -5 10 -11 10 -8 0 -7
5 1 15 19 23 35 3 21 -24 -10 -17 -15 -19 -31 -11 -17 9 -20 7 -20 -9 0 -11
-3 -22 -7 -24 -10 -6 -9 46 1 62 4 6 5 19 2 27 -3 9 -1 12 4 9 6 -3 10 -1 10
4 0 18 7 12 13 -9z m-101 -67 c-10 -4 -9 -9 5 -19 17 -13 17 -14 -2 -8 -18 5
-19 5 -3 -8 16 -13 15 -15 -4 -29 -11 -8 -33 -27 -49 -42 -17 -17 -29 -23 -30
-15 0 10 -2 11 -6 0 -4 -10 -9 -9 -20 5 -8 10 -11 12 -7 4 5 -9 3 -12 -4 -7
-15 9 25 66 47 66 8 0 11 3 8 7 -8 7 52 53 67 52 6 0 5 -3 -2 -6z m-564 -155
c32 -10 53 -35 59 -72 2 -10 33 -46 69 -79 63 -58 96 -109 86 -134 -2 -7 -9
-10 -16 -6 -6 4 -5 -1 3 -10 9 -11 10 -17 2 -17 -12 0 -15 -36 -3 -43 4 -2 1
-2 -5 -1 -7 2 -13 -2 -14 -9 0 -9 -2 -8 -6 1 -4 10 -8 10 -21 0 -14 -10 -15
-10 -4 2 15 18 16 50 0 50 -6 0 -8 3 -5 6 4 4 13 2 20 -4 10 -9 14 -8 14 3 0
8 -4 12 -9 9 -5 -4 -8 2 -6 11 2 10 -3 20 -10 22 -7 3 -10 -1 -6 -11 3 -9 2
-16 -2 -16 -13 1 -59 37 -59 47 -3 41 -30 84 -66 102 -49 26 -60 26 -91 2 -20
-16 -24 -28 -24 -68 1 -26 5 -54 10 -61 12 -20 -12 -59 -53 -84 -26 -15 -31
-23 -20 -25 9 -2 25 -19 35 -38 10 -19 21 -35 24 -35 3 0 7 -14 8 -32 2 -18
13 -51 26 -74 20 -35 21 -44 9 -59 -7 -11 -13 -13 -13 -7 0 7 -7 12 -16 12 -8
0 -12 5 -9 10 3 6 1 10 -5 10 -6 0 -23 12 -38 28 -43 43 -73 53 -110 35 -18
-9 -33 -21 -33 -27 -1 -6 -3 -31 -4 -56 -2 -25 -3 -51 -4 -58 -3 -36 -73 34
-94 95 -12 35 -15 76 -8 115 0 4 27 12 58 19 33 8 69 24 86 39 34 30 61 101
44 112 -9 6 -9 8 1 8 17 0 15 29 -3 36 -8 3 -37 -2 -65 -11 -41 -14 -55 -24
-67 -51 -21 -43 -53 -45 -79 -6 -40 59 -11 157 75 245 53 56 86 75 144 86 50
9 149 4 195 -11z m458 -22 c0 -14 -3 -23 -7 -20 -6 3 -6 22 0 42 3 10 7 -2 7
-22z m-29 -41 c-4 -8 -12 -15 -19 -14 -10 0 -10 2 0 6 6 2 12 12 12 21 0 8 3
13 6 9 4 -3 4 -13 1 -22z m-664 -237 c19 -20 14 -45 -13 -70 -13 -13 -28 -24
-32 -24 -5 -1 -10 -3 -13 -4 -13 -7 -31 -5 -37 4 -16 23 39 95 80 105 2 1 9
-5 15 -11z m3110 -83 c-5 -38 -24 -87 -31 -80 -3 2 -11 0 -18 -6 -13 -10 -16
-7 -28 25 -5 14 -3 17 10 12 14 -5 15 -4 4 9 -11 14 -7 19 13 16 4 0 6 2 5 7
-5 18 14 48 31 48 15 0 18 -6 14 -31z m-3016 -300 c4 -4 2 -5 -4 -1 -7 4 -13
2 -13 -3 0 -6 -4 -11 -8 -11 -5 0 -9 6 -9 14 0 15 21 16 34 1z m-437 -269 c6
-8 31 -22 55 -32 39 -14 43 -19 34 -35 -5 -11 -15 -19 -21 -19 -9 0 -107 -69
-128 -90 -3 -3 -17 -6 -32 -7 -22 -2 -28 3 -33 26 -13 59 18 147 50 144 11 -1
24 5 28 13 10 18 31 18 47 0z m229 -107 c14 -13 21 -15 21 -7 0 21 20 -14 20
-35 0 -12 -4 -16 -12 -11 -10 6 -10 5 -1 -7 8 -9 9 -20 3 -29 -6 -8 -10 -10
-10 -4 0 5 -7 19 -15 30 -12 15 -14 15 -9 2 4 -12 0 -16 -15 -15 -11 0 -18 3
-16 6 3 2 -5 9 -18 16 -12 6 -21 19 -21 28 1 9 -2 17 -7 17 -14 0 -6 24 11 31
21 8 45 1 69 -22z m-96 -118 c13 -23 14 -29 0 -54 -11 -21 -14 -52 -11 -115 4
-83 5 -88 31 -100 16 -8 27 -21 27 -33 0 -17 -7 -19 -70 -19 -54 0 -74 4 -88
18 -10 10 -22 17 -28 15 -13 -4 -51 58 -64 105 -21 80 -14 135 25 194 27 41
45 49 45 21 1 -17 1 -17 11 0 6 9 14 15 19 12 5 -3 11 -1 15 4 9 16 70 -18 88
-48z m3752 -243 c9 -16 11 -28 5 -28 -5 0 -10 -7 -10 -15 0 -8 -4 -15 -10 -15
-9 0 -41 -53 -40 -65 0 -3 -6 -12 -14 -20 -19 -19 -26 -7 -31 48 -2 23 -8 54
-13 68 -11 27 -8 36 30 81 l23 28 22 -28 c13 -15 30 -39 38 -54z m-5 -1153 c0
-7 -11 -12 -25 -12 -19 0 -23 3 -15 12 5 6 17 12 25 12 8 0 15 -6 15 -12z
m-300 -314 c7 -14 7 -22 -2 -27 -7 -5 -8 -3 -3 6 5 9 4 11 -4 6 -18 -11 -4
-25 22 -20 12 2 16 2 9 -2 -6 -3 -10 -10 -6 -15 3 -5 1 -9 -5 -9 -6 0 -8 -6
-5 -14 3 -9 -3 -17 -15 -21 -12 -3 -21 -11 -21 -17 0 -6 -3 -8 -7 -5 -3 4 -16
-4 -27 -16 -29 -32 -56 -41 -56 -20 0 24 49 104 63 102 26 -3 38 2 31 12 -4 8
-9 7 -15 -2 -7 -11 -9 -11 -9 -1 0 7 -4 10 -10 7 -15 -10 1 28 18 43 22 17 30
15 42 -7z m-3280 -301 c0 -30 -148 -61 -157 -34 -6 18 35 30 145 43 6 0 12 -4
12 -9z m1270 -330 c0 -26 82 -52 162 -51 10 0 20 -5 23 -10 4 -5 11 -7 16 -4
5 4 9 0 9 -7 0 -7 15 -27 33 -44 50 -49 121 -65 221 -49 45 7 48 7 38 -12 -14
-26 -191 -83 -259 -83 -48 0 -53 2 -59 25 -3 14 -10 23 -14 20 -5 -3 -11 -1
-15 5 -13 21 -32 10 -27 -15 4 -22 1 -25 -23 -25 -36 0 -138 31 -147 45 -4 5
-8 6 -8 2 0 -5 -6 -5 -12 0 -7 4 -15 8 -18 8 -14 0 -169 87 -180 100 -7 8 -16
13 -19 10 -4 -2 -8 2 -8 10 0 19 13 20 20 2 3 -9 21 -12 53 -11 27 1 52 -2 55
-8 4 -6 13 -3 22 7 9 8 19 16 21 16 27 3 44 15 64 45 21 32 52 46 52 24z"/>
<path d="M1225 4039 c-4 -5 -11 -6 -17 -3 -7 5 -8 2 -4 -5 5 -7 10 -10 14 -7
3 3 10 0 16 -7 6 -7 10 -10 9 -8 -2 2 2 10 7 16 8 9 6 14 -4 18 -9 4 -18 2
-21 -4z"/>
<path d="M528 3098 c-4 -11 -4 -38 1 -108 1 -19 51 -50 78 -49 10 0 13 3 5 6
-6 2 -10 9 -6 14 3 5 -2 12 -11 15 -23 9 -45 57 -45 99 0 34 -13 48 -22 23z"/>
<path d="M600 3796 c-32 -18 -74 -73 -55 -73 8 0 12 4 9 9 -3 4 3 11 13 15 10
4 24 15 31 25 7 10 19 18 27 18 8 0 17 5 20 10 9 14 -15 12 -45 -4z"/>
<path d="M4606 2911 c-4 -7 -5 -15 -2 -18 9 -9 19 4 14 18 -4 11 -6 11 -12 0z"/>
<path d="M4325 1330 c-30 -11 -47 -36 -44 -62 4 -38 -10 -66 -45 -87 -33 -21
-147 -43 -201 -40 -16 1 -41 1 -55 0 -24 -3 -24 -3 5 -12 97 -30 251 5 323 74
74 71 85 152 17 127z"/>
<path d="M4379 1137 c-55 -46 -69 -57 -69 -51 0 4 -7 1 -15 -6 -8 -7 -15 -9
-15 -6 0 4 -15 -7 -32 -23 -18 -17 -36 -31 -40 -31 -5 0 -8 -7 -8 -16 0 -8 -4
-13 -8 -10 -5 3 -20 -1 -35 -9 -14 -7 -28 -11 -31 -7 -3 3 -6 0 -6 -6 0 -27
94 2 113 34 4 8 15 14 22 14 8 0 15 4 15 10 0 5 15 17 33 26 36 18 84 60 98
87 12 22 10 21 -22 -6z"/>
<path d="M1315 693 c-19 -15 -19 -15 5 -9 14 4 36 9 50 12 37 8 37 14 -1 14
-19 0 -43 -8 -54 -17z"/>
<path d="M3342 688 c4 -10 -4 -28 -24 -48 -28 -29 -28 -31 -7 -25 23 8 57 35
43 35 -3 0 -2 6 4 13 7 8 5 16 -6 27 -14 13 -15 12 -10 -2z"/>
<path d="M3150 605 c0 -20 8 -29 33 -40 19 -8 36 -10 43 -4 6 5 13 6 16 3 3
-2 8 1 11 8 3 9 -5 14 -25 15 -18 0 -35 9 -44 22 -20 28 -34 27 -34 -4z"/>
</g>
</svg>
